<svg xmlns="http://www.w3.org/2000/svg" width="400" height="500"><path d="M199,263L176,241L107,277Z" fill="#919cca" stroke="#919cca" stroke-width="1.51"/><path d="M107,277L205,337L199,263Z" fill="#9093c4" stroke="#9093c4" stroke-width="1.51"/><path d="M107,277L157,387L205,337Z" fill="#928dc2" stroke="#928dc2" stroke-width="1.51"/><path d="M176,241L124,205L107,277Z" fill="#94a6cf" stroke="#94a6cf" stroke-width="1.51"/><path d="M107,277L40,186L84,300Z" fill="#9dadd2" stroke="#9dadd2" stroke-width="1.51"/><path d="M84,300L78,343L107,277Z" fill="#9ca0cb" stroke="#9ca0cb" stroke-width="1.51"/><path d="M78,343L157,387L107,277Z" fill="#9795c6" stroke="#9795c6" stroke-width="1.51"/><path d="M199,263L275,242L176,241Z" fill="#8d92c4" stroke="#8d92c4" stroke-width="1.51"/><path d="M227,139L103,154L124,205Z" fill="#9ab2d5" stroke="#9ab2d5" stroke-width="1.51"/><path d="M285,314L275,242L199,263Z" fill="#8d83bd" stroke="#8d83bd" stroke-width="1.51"/><path d="M205,337L285,314L199,263Z" fill="#8d82bb" stroke="#8d82bb" stroke-width="1.51"/><path d="M289,351L285,314L205,337Z" fill="#8d73b5" stroke="#8d73b5" stroke-width="1.51"/><path d="M157,387L169,418L205,337Z" fill="#907eba" stroke="#907eba" stroke-width="1.51"/><path d="M130,431L169,418L157,387Z" fill="#937dba" stroke="#937dba" stroke-width="1.51"/><path d="M124,205L40,186L107,277Z" fill="#9db2d5" stroke="#9db2d5" stroke-width="1.51"/><path d="M84,300L-42,329L78,343Z" fill="#a5a2cd" stroke="#a5a2cd" stroke-width="1.51"/><path d="M227,139L124,205L176,241Z" fill="#94a7cf" stroke="#94a7cf" stroke-width="1.51"/><path d="M78,343L84,413L157,387Z" fill="#998dc2" stroke="#998dc2" stroke-width="1.51"/><path d="M84,413L130,431L157,387Z" fill="#9683bd" stroke="#9683bd" stroke-width="1.51"/><path d="M262,425L289,351L205,337Z" fill="#8c6db2" stroke="#8c6db2" stroke-width="1.51"/><path d="M103,154L40,186L124,205Z" fill="#a1bbda" stroke="#a1bbda" stroke-width="1.51"/><path d="M78,343L-42,329L84,413Z" fill="#a599c9" stroke="#a599c9" stroke-width="1.51"/><path d="M275,242L227,139L176,241Z" fill="#9198c7" stroke="#9198c7" stroke-width="1.51"/><path d="M169,418L262,425L205,337Z" fill="#8c73b4" stroke="#8c73b4" stroke-width="1.51"/><path d="M228,522L262,425L169,418Z" fill="#8c64ab" stroke="#8c64ab" stroke-width="1.51"/><path d="M289,351L320,350L285,314Z" fill="#8c69af" stroke="#8c69af" stroke-width="1.51"/><path d="M285,314L354,271L275,242Z" fill="#8d75b6" stroke="#8d75b6" stroke-width="1.51"/><path d="M336,435L320,350L289,351Z" fill="#8b5ba9" stroke="#8b5ba9" stroke-width="1.51"/><path d="M227,139L195,80L103,154Z" fill="#9eb2d5" stroke="#9eb2d5" stroke-width="1.51"/><path d="M275,242L258,127L227,139Z" fill="#9598c8" stroke="#9598c8" stroke-width="1.51"/><path d="M368,158L258,127L275,242Z" fill="#958cc1" stroke="#958cc1" stroke-width="1.51"/><path d="M103,154L23,138L40,186Z" fill="#abc4df" stroke="#abc4df" stroke-width="1.51"/><path d="M-46,265L-42,329L84,300Z" fill="#adaed3" stroke="#adaed3" stroke-width="1.51"/><path d="M34,78L23,138L103,154Z" fill="#b2c9e1" stroke="#b2c9e1" stroke-width="1.51"/><path d="M320,350L354,271L285,314Z" fill="#8c69b0" stroke="#8c69b0" stroke-width="1.51"/><path d="M-46,265L84,300L40,186Z" fill="#a7b5d7" stroke="#a7b5d7" stroke-width="1.51"/><path d="M-42,203L-46,265L40,186Z" fill="#b3c2de" stroke="#b3c2de" stroke-width="1.51"/><path d="M261,96L195,80L227,139Z" fill="#9fa8d0" stroke="#9fa8d0" stroke-width="1.51"/><path d="M23,138L-42,203L40,186Z" fill="#b3c8e0" stroke="#b3c8e0" stroke-width="1.51"/><path d="M258,127L261,96L227,139Z" fill="#9da1cc" stroke="#9da1cc" stroke-width="1.51"/><path d="M357,85L261,96L258,127Z" fill="#a098c8" stroke="#a098c8" stroke-width="1.51"/><path d="M195,80L154,54L103,154Z" fill="#a6bcda" stroke="#a6bcda" stroke-width="1.51"/><path d="M147,-21L154,54L201,-36Z" fill="#b5c4df" stroke="#b5c4df" stroke-width="1.51"/><path d="M130,431L146,518L169,418Z" fill="#9375b3" stroke="#9375b3" stroke-width="1.51"/><path d="M33,535L146,518L130,431Z" fill="#9977b1" stroke="#9977b1" stroke-width="1.51"/><path d="M33,535L130,431L84,413Z" fill="#9d80b9" stroke="#9d80b9" stroke-width="1.51"/><path d="M-42,329L-9,462L84,413Z" fill="#ab95c7" stroke="#ab95c7" stroke-width="1.51"/><path d="M-46,265L-77,300L-42,329Z" fill="#b8b5d8" stroke="#b8b5d8" stroke-width="1.51"/><path d="M-83,233L-77,300L-46,265Z" fill="#b9bedc" stroke="#b9bedc" stroke-width="1.51"/><path d="M262,425L336,435L289,351Z" fill="#8b5ba9" stroke="#8b5ba9" stroke-width="1.51"/><path d="M320,350L409,273L354,271Z" fill="#8c63ac" stroke="#8c63ac" stroke-width="1.51"/><path d="M322,538L336,435L262,425Z" fill="#894a9e" stroke="#894a9e" stroke-width="1.51"/><path d="M354,271L374,200L275,242Z" fill="#8e77b6" stroke="#8e77b6" stroke-width="1.51"/><path d="M409,273L374,200L354,271Z" fill="#8c6bae" stroke="#8c6bae" stroke-width="1.51"/><path d="M-77,300L-72,355L-42,329Z" fill="#b8afd5" stroke="#b8afd5" stroke-width="1.51"/><path d="M23,138L-34,136L-42,203Z" fill="#b9cfe5" stroke="#b9cfe5" stroke-width="1.51"/><path d="M154,54L34,78L103,154Z" fill="#aec7e0" stroke="#aec7e0" stroke-width="1.51"/><path d="M-72,355L-9,462L-42,329Z" fill="#b5a0cd" stroke="#b5a0cd" stroke-width="1.51"/><path d="M34,78L-34,136L23,138Z" fill="#bcd0e5" stroke="#bcd0e5" stroke-width="1.51"/><path d="M-42,203L-83,233L-46,265Z" fill="#b9c5df" stroke="#b9c5df" stroke-width="1.51"/><path d="M-74,145L-83,233L-42,203Z" fill="#becee4" stroke="#becee4" stroke-width="1.51"/><path d="M146,518L228,522L169,418Z" fill="#8f68aa" stroke="#8f68aa" stroke-width="1.51"/><path d="M374,200L368,158L275,242Z" fill="#927eba" stroke="#927eba" stroke-width="1.51"/><path d="M374,200L398,148L368,158Z" fill="#967bb7" stroke="#967bb7" stroke-width="1.51"/><path d="M443,356L409,273L320,350Z" fill="#8a55a4" stroke="#8a55a4" stroke-width="1.51"/><path d="M178,553L248,530L228,522Z" fill="#88569b" stroke="#88569b" stroke-width="1.51"/><path d="M228,522L248,530L262,425Z" fill="#8b56a1" stroke="#8b56a1" stroke-width="1.51"/><path d="M146,518L178,553L228,522Z" fill="#8c5fa1" stroke="#8c5fa1" stroke-width="1.51"/><path d="M105,591L178,553L146,518Z" fill="#8a659f" stroke="#8a659f" stroke-width="1.51"/><path d="M-84,65L-74,145L-34,136Z" fill="#c9dbeb" stroke="#c9dbeb" stroke-width="1.51"/><path d="M-34,136L-74,145L-42,203Z" fill="#bfd3e6" stroke="#bfd3e6" stroke-width="1.51"/><path d="M409,273L416,203L374,200Z" fill="#8f6bad" stroke="#8f6bad" stroke-width="1.51"/><path d="M-9,462L33,535L84,413Z" fill="#a684bb" stroke="#a684bb" stroke-width="1.51"/><path d="M-120,432L-37,484L-9,462Z" fill="#b792c4" stroke="#b792c4" stroke-width="1.51"/><path d="M-37,484L33,535L-9,462Z" fill="#ad85b9" stroke="#ad85b9" stroke-width="1.51"/><path d="M416,203L398,148L374,200Z" fill="#9474b2" stroke="#9474b2" stroke-width="1.51"/><path d="M368,158L357,85L258,127Z" fill="#9d8dc2" stroke="#9d8dc2" stroke-width="1.51"/><path d="M201,-36L154,54L195,80Z" fill="#aebdda" stroke="#aebdda" stroke-width="1.51"/><path d="M322,538L390,437L336,435Z" fill="#883e98" stroke="#883e98" stroke-width="1.51"/><path d="M336,435L390,437L320,350Z" fill="#8a4ca2" stroke="#8a4ca2" stroke-width="1.51"/><path d="M398,148L357,85L368,158Z" fill="#9b82bb" stroke="#9b82bb" stroke-width="1.51"/><path d="M34,78L11,35L-34,136Z" fill="#c2d5e8" stroke="#c2d5e8" stroke-width="1.51"/><path d="M74,-30L11,35L34,78Z" fill="#c5d7e8" stroke="#c5d7e8" stroke-width="1.51"/><path d="M390,437L443,356L320,350Z" fill="#894a9e" stroke="#894a9e" stroke-width="1.51"/><path d="M409,273L486,216L416,203Z" fill="#8e63a4" stroke="#8e63a4" stroke-width="1.51"/><path d="M248,530L322,538L262,425Z" fill="#8a4c9c" stroke="#8a4c9c" stroke-width="1.51"/><path d="M324,553L322,538L248,530Z" fill="#833f90" stroke="#833f90" stroke-width="1.51"/><path d="M154,54L74,-30L34,78Z" fill="#bbd0e5" stroke="#bbd0e5" stroke-width="1.51"/><path d="M201,-36L195,80L261,96Z" fill="#aab1d5" stroke="#aab1d5" stroke-width="1.51"/><path d="M443,356L464,295L409,273Z" fill="#8a509c" stroke="#8a509c" stroke-width="1.51"/><path d="M525,136L404,92L398,148Z" fill="#9c74ad" stroke="#9c74ad" stroke-width="1.51"/><path d="M263,588L324,553L248,530Z" fill="#7f428e" stroke="#7f428e" stroke-width="1.51"/><path d="M59,582L105,591L146,518Z" fill="#8d6ca0" stroke="#8d6ca0" stroke-width="1.51"/><path d="M59,582L146,518L33,535Z" fill="#9772a7" stroke="#9772a7" stroke-width="1.51"/><path d="M-8,568L59,582L33,535Z" fill="#9b75a6" stroke="#9b75a6" stroke-width="1.51"/><path d="M-72,355L-120,432L-9,462Z" fill="#b99ccb" stroke="#b99ccb" stroke-width="1.51"/><path d="M-37,484L-8,568L33,535Z" fill="#ab7fb2" stroke="#ab7fb2" stroke-width="1.51"/><path d="M-77,300L-120,432L-72,355Z" fill="#bca9d3" stroke="#bca9d3" stroke-width="1.51"/><path d="M-83,233L-120,432L-77,300Z" fill="#bdb3d7" stroke="#bdb3d7" stroke-width="1.51"/><path d="M-113,24L-120,432L-83,233Z" fill="#c0cae2" stroke="#c0cae2" stroke-width="1.51"/><path d="M300,-25L201,-36L261,96Z" fill="#b0add3" stroke="#b0add3" stroke-width="1.51"/><path d="M398,148L404,92L357,85Z" fill="#9f81ba" stroke="#9f81ba" stroke-width="1.51"/><path d="M486,216L398,148L416,203Z" fill="#936caa" stroke="#936caa" stroke-width="1.51"/><path d="M322,538L414,523L390,437Z" fill="#85308f" stroke="#85308f" stroke-width="1.51"/><path d="M519,403L498,335L443,356Z" fill="#7b3a88" stroke="#7b3a88" stroke-width="1.51"/><path d="M263,588L248,530L178,553Z" fill="#815094" stroke="#815094" stroke-width="1.51"/><path d="M105,591L263,588L178,553Z" fill="#7e5993" stroke="#7e5993" stroke-width="1.51"/><path d="M300,-25L261,96L350,-1Z" fill="#ae9fcc" stroke="#ae9fcc" stroke-width="1.51"/><path d="M11,35L-84,65L-34,136Z" fill="#cbdceb" stroke="#cbdceb" stroke-width="1.51"/><path d="M-74,145L-113,24L-83,233Z" fill="#cadbeb" stroke="#cadbeb" stroke-width="1.51"/><path d="M1,-16L-84,65L11,35Z" fill="#d2e1ee" stroke="#d2e1ee" stroke-width="1.51"/><path d="M113,-83L74,-30L147,-21Z" fill="#c3d6e8" stroke="#c3d6e8" stroke-width="1.51"/><path d="M147,-21L74,-30L154,54Z" fill="#b9cee4" stroke="#b9cee4" stroke-width="1.51"/><path d="M-84,587L-8,568L-37,484Z" fill="#ad81b0" stroke="#ad81b0" stroke-width="1.51"/><path d="M464,295L486,216L409,273Z" fill="#89599d" stroke="#89599d" stroke-width="1.51"/><path d="M74,-30L1,-16L11,35Z" fill="#cdddec" stroke="#cdddec" stroke-width="1.51"/><path d="M350,-1L261,96L357,85Z" fill="#a896c7" stroke="#a896c7" stroke-width="1.51"/><path d="M464,295L554,241L486,216Z" fill="#7a558f" stroke="#7a558f" stroke-width="1.51"/><path d="M443,356L498,335L464,295Z" fill="#824691" stroke="#824691" stroke-width="1.51"/><path d="M519,403L443,356L390,437Z" fill="#85368f" stroke="#85368f" stroke-width="1.51"/><path d="M404,92L350,-1L357,85Z" fill="#a88bc1" stroke="#a88bc1" stroke-width="1.51"/><path d="M397,-55L350,-1L434,-30Z" fill="#b691c3" stroke="#b691c3" stroke-width="1.51"/><path d="M324,553L414,523L322,538Z" fill="#822f8a" stroke="#822f8a" stroke-width="1.51"/><path d="M439,603L414,523L324,553Z" fill="#7a217d" stroke="#7a217d" stroke-width="1.51"/><path d="M-120,432L-123,500L-37,484Z" fill="#bc93c3" stroke="#bc93c3" stroke-width="1.51"/><path d="M189,-103L113,-83L147,-21Z" fill="#c1d0e5" stroke="#c1d0e5" stroke-width="1.51"/><path d="M74,-30L35,-82L1,-16Z" fill="#d1e0ee" stroke="#d1e0ee" stroke-width="1.51"/><path d="M189,-103L147,-21L201,-36Z" fill="#bcc8e1" stroke="#bcc8e1" stroke-width="1.51"/><path d="M-38,-97L-113,24L1,-16Z" fill="#e1edf4" stroke="#e1edf4" stroke-width="1.51"/><path d="M1,-16L-113,24L-84,65Z" fill="#dae6f1" stroke="#dae6f1" stroke-width="1.51"/><path d="M-84,65L-113,24L-74,145Z" fill="#d4e2ee" stroke="#d4e2ee" stroke-width="1.51"/><path d="M-120,432L-113,24L-123,500Z" fill="#c1b6d9" stroke="#c1b6d9" stroke-width="1.51"/><path d="M554,241L525,136L486,216Z" fill="#785c8e" stroke="#785c8e" stroke-width="1.51"/><path d="M486,496L519,403L390,437Z" fill="#7f2885" stroke="#7f2885" stroke-width="1.51"/><path d="M-123,500L-84,587L-37,484Z" fill="#b988b9" stroke="#b988b9" stroke-width="1.51"/><path d="M-8,568L-84,587L59,582Z" fill="#9d78a4" stroke="#9d78a4" stroke-width="1.51"/><path d="M59,582L-84,587L105,591Z" fill="#94729f" stroke="#94729f" stroke-width="1.51"/><path d="M113,-83L35,-82L74,-30Z" fill="#cdddec" stroke="#cdddec" stroke-width="1.51"/><path d="M113,-83L189,-103L35,-82Z" fill="#c8daeb" stroke="#c8daeb" stroke-width="1.51"/><path d="M293,-101L189,-103L201,-36Z" fill="#bdbddc" stroke="#bdbddc" stroke-width="1.51"/><path d="M293,-101L201,-36L300,-25Z" fill="#bab1d6" stroke="#bab1d6" stroke-width="1.51"/><path d="M439,603L486,496L414,523Z" fill="#7c0f78" stroke="#7c0f78" stroke-width="1.51"/><path d="M414,523L486,496L390,437Z" fill="#842486" stroke="#842486" stroke-width="1.51"/><path d="M486,216L525,136L398,148Z" fill="#8d6aa2" stroke="#8d6aa2" stroke-width="1.51"/><path d="M554,241L464,295L498,335Z" fill="#774a8a" stroke="#774a8a" stroke-width="1.51"/><path d="M588,271L554,241L498,335Z" fill="#6f4883" stroke="#6f4883" stroke-width="1.51"/><path d="M352,-107L293,-101L300,-25Z" fill="#bda6d1" stroke="#bda6d1" stroke-width="1.51"/><path d="M397,-55L300,-25L350,-1Z" fill="#b69aca" stroke="#b69aca" stroke-width="1.51"/><path d="M519,403L556,378L498,335Z" fill="#6e347b" stroke="#6e347b" stroke-width="1.51"/><path d="M544,457L556,378L519,403Z" fill="#6b2975" stroke="#6b2975" stroke-width="1.51"/><path d="M434,-30L350,-1L404,92Z" fill="#ae8abf" stroke="#ae8abf" stroke-width="1.51"/><path d="M492,23L434,-30L404,92Z" fill="#ac7fb4" stroke="#ac7fb4" stroke-width="1.51"/><path d="M486,496L544,457L519,403Z" fill="#6e2074" stroke="#6e2074" stroke-width="1.51"/><path d="M263,588L439,603L324,553Z" fill="#762e80" stroke="#762e80" stroke-width="1.51"/><path d="M486,496L581,498L544,457Z" fill="#68166a" stroke="#68166a" stroke-width="1.51"/><path d="M463,611L439,603L263,588Z" fill="#6e1e73" stroke="#6e1e73" stroke-width="1.51"/><path d="M463,611L263,588L105,591Z" fill="#733e83" stroke="#733e83" stroke-width="1.51"/><path d="M506,35L492,23L404,92Z" fill="#a178ab" stroke="#a178ab" stroke-width="1.51"/><path d="M35,-82L-38,-97L1,-16Z" fill="#dce8f2" stroke="#dce8f2" stroke-width="1.51"/><path d="M189,-103L-38,-97L35,-82Z" fill="#d3e1ee" stroke="#d3e1ee" stroke-width="1.51"/><path d="M492,23L495,-69L434,-30Z" fill="#ab81ae" stroke="#ab81ae" stroke-width="1.51"/><path d="M525,136L506,35L404,92Z" fill="#9773a5" stroke="#9773a5" stroke-width="1.51"/><path d="M558,124L506,35L525,136Z" fill="#846994" stroke="#846994" stroke-width="1.51"/><path d="M554,241L558,124L525,136Z" fill="#79608f" stroke="#79608f" stroke-width="1.51"/><path d="M556,378L588,271L498,335Z" fill="#6e3e7e" stroke="#6e3e7e" stroke-width="1.51"/><path d="M581,498L588,271L556,378Z" fill="#6c3078" stroke="#6c3078" stroke-width="1.51"/><path d="M588,271L558,124L554,241Z" fill="#74588a" stroke="#74588a" stroke-width="1.51"/><path d="M495,-69L397,-55L434,-30Z" fill="#b888b9" stroke="#b888b9" stroke-width="1.51"/><path d="M495,-69L352,-107L397,-55Z" fill="#bb90c0" stroke="#bb90c0" stroke-width="1.51"/><path d="M397,-55L352,-107L300,-25Z" fill="#bb9dcc" stroke="#bb9dcc" stroke-width="1.51"/><path d="M293,-101L352,-107L189,-103Z" fill="#c0b2d7" stroke="#c0b2d7" stroke-width="1.51"/><path d="M439,603L463,611L486,496Z" fill="#6f096b" stroke="#6f096b" stroke-width="1.51"/><path d="M-84,587L463,611L105,591Z" fill="#7b5c90" stroke="#7b5c90" stroke-width="1.51"/><path d="M-38,-97L-100,-101L-113,24Z" fill="#e9f2f7" stroke="#e9f2f7" stroke-width="1.51"/><path d="M189,-103L-100,-101L-38,-97Z" fill="#dde8f2" stroke="#dde8f2" stroke-width="1.51"/><path d="M352,-107L-100,-101L189,-103Z" fill="#c6d3e7" stroke="#c6d3e7" stroke-width="1.51"/><path d="M544,457L581,498L556,378Z" fill="#6a2171" stroke="#6a2171" stroke-width="1.51"/><path d="M554,563L581,498L486,496Z" fill="#670964" stroke="#670964" stroke-width="1.51"/><path d="M588,271L588,86L558,124Z" fill="#7a628f" stroke="#7a628f" stroke-width="1.51"/><path d="M558,124L588,86L506,35Z" fill="#866a94" stroke="#866a94" stroke-width="1.51"/><path d="M573,12L495,-69L492,23Z" fill="#99779e" stroke="#99779e" stroke-width="1.51"/><path d="M463,611L554,563L486,496Z" fill="#670663" stroke="#670663" stroke-width="1.51"/><path d="M573,12L492,23L506,35Z" fill="#92739b" stroke="#92739b" stroke-width="1.51"/><path d="M588,86L573,12L506,35Z" fill="#8c6f97" stroke="#8c6f97" stroke-width="1.51"/><path d="M495,-69L596,-60L352,-107Z" fill="#af84ae" stroke="#af84ae" stroke-width="1.51"/><path d="M573,12L596,-60L495,-69Z" fill="#99789c" stroke="#99789c" stroke-width="1.51"/><path d="M588,86L596,-60L573,12Z" fill="#917399" stroke="#917399" stroke-width="1.51"/><path d="M588,271L596,-60L588,86Z" fill="#836993" stroke="#836993" stroke-width="1.51"/></svg>