<?xml version="1.0" standalone="no"?><!DOCTYPE svg PUBLIC "-//W3C//DTD SVG 1.1//EN" "http://www.w3.org/Graphics/SVG/1.1/DTD/svg11.dtd"><svg t="1528475173547" class="icon" style="" viewBox="0 0 1024 1024" version="1.1" xmlns="http://www.w3.org/2000/svg" p-id="2994" xmlns:xlink="http://www.w3.org/1999/xlink" width="200" height="200"><defs><style type="text/css"></style></defs><path d="M891.7 678.8H222.3c-37.5 0-68.1-30.7-68.1-68.1V166c0-37.5 30.7-68.1 68.1-68.1h669.4c37.5 0 68.1 30.7 68.1 68.1v444.7c0 37.5-30.6 68.1-68.1 68.1z" fill="#B1F2E1" p-id="2995"></path><path d="M800.8 783h-383L266.2 925.5c-1.9 3.3-6.7 3.3-8.7 0L226.1 783h-94.6c-37.5 0-68.1-30.7-68.1-68.1V271c0-37.5 30.7-68.1 68.1-68.1h669.4c37.5 0 68.1 30.7 68.1 68.1v443.9c0 37.4-30.7 68.1-68.2 68.1z" fill="#3BC6A4" p-id="2996"></path><path d="M375.8 347h390.3v42.9H375.8zM218.1 461.8h548.1v42.9H218.1zM218.1 567.7h548.1v42.9H218.1z" fill="#FFFFFF" p-id="2997"></path></svg>