<?xml version="1.0" standalone="no"?><!DOCTYPE svg PUBLIC "-//W3C//DTD SVG 1.1//EN" "http://www.w3.org/Graphics/SVG/1.1/DTD/svg11.dtd"><svg t="1528475109336" class="icon" style="" viewBox="0 0 1024 1024" version="1.1" xmlns="http://www.w3.org/2000/svg" p-id="1462" xmlns:xlink="http://www.w3.org/1999/xlink" width="200" height="200"><defs><style type="text/css"></style></defs><path d="M634.410667 944.832l-43.818667 0 0-54.656c0-9.237333-7.530667-16.746667-16.789333-16.746667s-16.789333 7.530667-16.789333 16.746667l0 71.36c0 9.237333 7.530667 16.746667 16.789333 16.746667l60.608 0c9.28 0 16.810667-7.530667 16.810667-16.746667C651.2 952.341333 643.669333 944.832 634.410667 944.832z" p-id="1463"></path><path d="M705.28 338.389333l120.938667 0c13.973333 0 25.344-11.349333 25.344-25.28l0-120.405333c0-13.888-11.370667-25.216-25.344-25.216l-120.938667 0c-13.973333 0-25.322667 11.306667-25.322667 25.216l0 120.405333C679.957333 327.04 691.306667 338.389333 705.28 338.389333zM713.536 201.002667l104.426667 0 0 103.936-104.426667 0L713.536 201.002667z" p-id="1464"></path><path d="M557.013333 424c0 22.677333 18.538667 41.173333 41.344 41.173333l341.333333 0c22.805333 0 41.344-18.474667 41.344-41.173333L981.034667 83.84c0-22.677333-18.56-41.173333-41.344-41.173333l-341.333333 0c-22.805333 0-41.344 18.474667-41.344 41.173333L557.013333 424zM590.592 83.84c0-4.245333 3.498667-7.701333 7.765333-7.701333l341.333333 0c4.288 0 7.765333 3.456 7.765333 7.701333l0 340.16c0 4.245333-3.477333 7.68-7.765333 7.68l-341.333333 0c-4.266667 0-7.765333-3.434667-7.765333-7.68L590.592 83.84z" p-id="1465"></path><path d="M804.565333 588.224c9.258667 0 16.789333-7.530667 16.789333-16.768 0-9.216-7.530667-16.704-16.789333-16.704l-206.208 0c-22.805333 0-41.344 18.474667-41.344 41.173333l0 194.837333c0 9.216 7.530667 16.725333 16.789333 16.725333s16.789333-7.530667 16.789333-16.725333l0-194.837333c0-4.245333 3.498667-7.68 7.765333-7.68L804.565333 588.245333z" p-id="1466"></path><path d="M677.717333 644.650667c0-9.216-7.530667-16.704-16.789333-16.704s-16.789333 7.509333-16.789333 16.704l0 61.312c0 9.237333 7.530667 16.746667 16.789333 16.746667s16.789333-7.530667 16.789333-16.746667L677.717333 644.650667z" p-id="1467"></path><path d="M981.141333 746.837333c0-9.237333-7.530667-16.704-16.789333-16.704s-16.810667 7.488-16.810667 16.704l0 201.088-173.568 0c-9.258667 0-16.789333 7.488-16.789333 16.704 0 9.216 7.530667 16.704 16.789333 16.704l190.357333 0c9.258667 0 16.789333-7.509333 16.789333-16.704L981.12 746.837333z" p-id="1468"></path><path d="M722.218667 813.248l102.869333 0c9.258667 0 16.789333-7.530667 16.789333-16.746667 0-9.216-7.530667-16.682667-16.789333-16.682667l-119.658667 0c-9.258667 0-16.789333 7.488-16.789333 16.682667l0 166.912c0 9.216 7.530667 16.704 16.789333 16.704 9.28 0 16.789333-7.509333 16.789333-16.704L722.218667 813.248z" p-id="1469"></path><path d="M981.333333 571.456c0-9.216-7.530667-16.704-16.789333-16.704l-69.418667 0c-9.258667 0-16.789333 7.509333-16.789333 16.704 0 9.258667 7.530667 16.768 16.789333 16.768l52.608 0 0 72.469333-159.594667 0c-9.258667 0-16.810667 7.509333-16.810667 16.725333 0 9.216 7.552 16.725333 16.810667 16.725333l176.405333 0c9.258667 0 16.789333-7.530667 16.789333-16.725333L981.333333 571.456z" p-id="1470"></path><path d="M466.986667 595.925333c0-21.888-19.306667-41.173333-41.344-41.173333l-341.632 0c-22.805333 0-41.344 18.474667-41.344 41.173333l0 340.565333c0 22.698667 18.56 41.194667 41.344 41.194667l341.632 0c22.805333 0 41.344-18.474667 41.344-41.194667L466.986667 595.925333zM433.408 936.469333c0 4.266667-3.498667 7.722667-7.765333 7.722667l-341.610667 0c-4.288 0-7.765333-3.456-7.765333-7.722667l0-340.565333c0-4.245333 3.477333-7.68 7.765333-7.68l341.632 0c4.266667 0 7.765333 3.434667 7.765333 7.68L433.429333 936.469333z" p-id="1471"></path><path d="M197.504 338.389333l120.917333 0c13.973333 0 25.344-11.349333 25.344-25.28l0-120.405333c0-6.72-2.645333-13.034667-7.424-17.813333s-11.157333-7.402667-17.92-7.402667l-120.917333 0c-13.973333 0-25.344 11.306667-25.344 25.216l0 120.405333C172.181333 327.04 183.552 338.389333 197.504 338.389333zM205.76 201.002667l104.426667 0 0 103.936-104.426667 0L205.76 201.002667z" p-id="1472"></path><path d="M42.666667 424c0 22.677333 18.56 41.173333 41.344 41.173333l341.632 0c22.805333 0 41.344-18.474667 41.344-41.173333L466.986667 83.84c0-22.677333-18.538667-41.173333-41.344-41.173333l-341.632 0c-22.805333 0-41.344 18.474667-41.344 41.173333L42.666667 424zM76.266667 83.84c0-4.245333 3.477333-7.701333 7.765333-7.701333l341.632 0c4.266667 0 7.765333 3.456 7.765333 7.701333l0 340.16c0 4.245333-3.498667 7.68-7.765333 7.68l-341.610667 0c-4.288 0-7.765333-3.434667-7.765333-7.68L76.288 83.84z" p-id="1473"></path><path d="M318.421333 681.152l-120.917333 0c-13.973333 0-25.344 11.349333-25.344 25.28l0 120.405333c0 13.888 11.370667 25.216 25.344 25.216l120.917333 0c13.973333 0 25.344-11.306667 25.344-25.216l0-120.405333c0-6.741333-2.645333-13.056-7.424-17.834667C331.541333 683.818667 325.184 681.152 318.421333 681.152zM310.186667 818.538667l-104.426667 0 0-103.936 104.426667 0L310.186667 818.538667z" p-id="1474"></path></svg>